<mxfile
  host="Electron" 
  agent="Mozilla/5.0 (Macintosh; Intel Mac OS X 10_15_7) AppleWebKit/537.36 (KHTML, like Gecko) draw.io/25.0.2 Chrome/128.0.6613.186 Electron/32.2.5 Safari/537.36" 
  version="25.0.2"
  >
  <diagram
    name="mindmap"
    >
    <mxGraphModel
      grid="1" 
      gridSize="10" 
      guides="1" 
      tooltips="1" 
      connect="1" 
      arrows="1" 
      fold="1" 
      page="1" 
      pageScale="1" 
      pageWidth="1" 
      pageHeight="1" 
      math="0" 
      shadow="0"
      >
      <root>
        <mxCell
          id="page"
          />
        <mxCell
          id="root" 
          parent="page"
          />
        <mxCell
          style="align=center;strokeColor=none;verticalAlign=top;aspect=fixed" 
          id="mindmap" 
          parent="root" 
          value="Mindmap" 
          vertex="1"
          >
          <mxGeometry
            as="geometry" 
            width="640" 
            height="900" 
            x="0" 
            y="0"
            />
          </mxCell>
        <mxCell
          style="align=center;spacingLeft=5;spacingRight=5;spacingBottom=5;verticalAlign=top;aspect=fixed;noLabel=1;opacity=0" 
          id="row_top" 
          parent="mindmap" 
          value="Top" 
          vertex="1"
          >
          <mxGeometry
            as="geometry" 
            width="580" 
            height="60" 
            x="30" 
            y="30"
            />
          </mxCell>
        <mxCell
          style="rounded=1;whiteSpace=wrap;verticalAlign=middle;align=center" 
          id="shape_t1" 
          parent="row_top" 
          value="T1" 
          vertex="1"
          >
          <mxGeometry
            as="geometry" 
            width="60" 
            height="60" 
            x="170" 
            y="0"
            />
          </mxCell>
        <mxCell
          style="rounded=1;whiteSpace=wrap;verticalAlign=middle;align=center" 
          id="shape_t2" 
          parent="row_top" 
          value="T2" 
          vertex="1"
          >
          <mxGeometry
            as="geometry" 
            width="60" 
            height="60" 
            x="260" 
            y="0"
            />
          </mxCell>
        <mxCell
          style="rounded=1;whiteSpace=wrap;verticalAlign=middle;align=center" 
          id="shape_t3" 
          parent="row_top" 
          value="T3" 
          vertex="1"
          >
          <mxGeometry
            as="geometry" 
            width="60" 
            height="60" 
            x="350" 
            y="0"
            />
          </mxCell>
        <mxCell
          style="align=center;spacingLeft=5;spacingRight=5;spacingBottom=5;verticalAlign=top;aspect=fixed;noLabel=1;opacity=0" 
          id="row" 
          parent="mindmap" 
          value="Row" 
          vertex="1"
          >
          <mxGeometry
            as="geometry" 
            width="580" 
            height="600" 
            x="30" 
            y="150"
            />
          </mxCell>
        <mxCell
          style="align=center;spacingLeft=5;spacingRight=5;spacingBottom=5;verticalAlign=top;aspect=fixed;noLabel=1;opacity=0" 
          id="column_left" 
          parent="row" 
          value="Left" 
          vertex="1"
          >
          <mxGeometry
            as="geometry" 
            width="60" 
            height="600" 
            x="0" 
            y="0"
            />
          </mxCell>
        <mxCell
          style="rounded=1;whiteSpace=wrap;verticalAlign=middle;align=center" 
          id="shape_l1" 
          parent="column_left" 
          value="L1" 
          vertex="1"
          >
          <mxGeometry
            as="geometry" 
            width="60" 
            height="60" 
            x="0" 
            y="150"
            />
          </mxCell>
        <mxCell
          style="rounded=1;whiteSpace=wrap;verticalAlign=middle;align=center" 
          id="shape_l2" 
          parent="column_left" 
          value="L2" 
          vertex="1"
          >
          <mxGeometry
            as="geometry" 
            width="60" 
            height="60" 
            x="0" 
            y="270"
            />
          </mxCell>
        <mxCell
          style="rounded=1;whiteSpace=wrap;verticalAlign=middle;align=center" 
          id="shape_l3" 
          parent="column_left" 
          value="L3" 
          vertex="1"
          >
          <mxGeometry
            as="geometry" 
            width="60" 
            height="60" 
            x="0" 
            y="390"
            />
          </mxCell>
        <mxCell
          style="align=center;spacingLeft=5;spacingRight=5;spacingBottom=5;verticalAlign=top;aspect=fixed;noLabel=1;opacity=0" 
          id="center_middle_centermiddle" 
          parent="row" 
          value="Center Middle" 
          vertex="1"
          >
          <mxGeometry
            width="400" 
            height="600" 
            as="geometry" 
            x="90" 
            y="0"
            />
          </mxCell>
        <mxCell
          style="rounded=1;whiteSpace=wrap;verticalAlign=middle;align=center" 
          id="shape_center" 
          parent="center_middle_centermiddle" 
          value="Center" 
          vertex="1"
          >
          <mxGeometry
            as="geometry" 
            width="60" 
            height="60" 
            x="170" 
            y="270"
            />
          </mxCell>
        <mxCell
          style="align=center;spacingLeft=5;spacingRight=5;spacingBottom=5;verticalAlign=top;aspect=fixed;noLabel=1;opacity=0" 
          id="column_right" 
          parent="row" 
          value="Right" 
          vertex="1"
          >
          <mxGeometry
            as="geometry" 
            width="60" 
            height="600" 
            x="520" 
            y="0"
            />
          </mxCell>
        <mxCell
          style="rounded=1;whiteSpace=wrap;verticalAlign=middle;align=right" 
          id="shape_r1" 
          parent="column_right" 
          value="R1" 
          vertex="1"
          >
          <mxGeometry
            as="geometry" 
            width="60" 
            height="60" 
            x="0" 
            y="90"
            />
          </mxCell>
        <mxCell
          style="rounded=1;whiteSpace=wrap;verticalAlign=middle;align=left" 
          id="shape_r2" 
          parent="column_right" 
          value="R2" 
          vertex="1"
          >
          <mxGeometry
            as="geometry" 
            width="60" 
            height="60" 
            x="0" 
            y="210"
            />
          </mxCell>
        <mxCell
          style="rounded=1;whiteSpace=wrap;verticalAlign=top;align=center" 
          id="shape_r3" 
          parent="column_right" 
          value="R3" 
          vertex="1"
          >
          <mxGeometry
            as="geometry" 
            width="60" 
            height="60" 
            x="0" 
            y="330"
            />
          </mxCell>
        <mxCell
          style="rounded=1;whiteSpace=wrap;verticalAlign=bottom;align=center" 
          id="shape_r4" 
          parent="column_right" 
          value="R4" 
          vertex="1"
          >
          <mxGeometry
            as="geometry" 
            width="60" 
            height="60" 
            x="0" 
            y="450"
            />
          </mxCell>
        <mxCell
          style="align=center;spacingLeft=5;spacingRight=5;spacingBottom=5;verticalAlign=top;aspect=fixed;noLabel=1;opacity=0" 
          id="row_bottom" 
          parent="mindmap" 
          value="Bottom" 
          vertex="1"
          >
          <mxGeometry
            as="geometry" 
            width="580" 
            height="60" 
            x="30" 
            y="810"
            />
          </mxCell>
        <mxCell
          style="rounded=1;whiteSpace=wrap;verticalAlign=middle;align=center" 
          id="shape_b1" 
          parent="row_bottom" 
          value="B1" 
          vertex="1"
          >
          <mxGeometry
            as="geometry" 
            width="60" 
            height="60" 
            x="125" 
            y="0"
            />
          </mxCell>
        <mxCell
          style="rounded=1;whiteSpace=wrap;verticalAlign=middle;align=center" 
          id="shape_b2" 
          parent="row_bottom" 
          value="B2" 
          vertex="1"
          >
          <mxGeometry
            as="geometry" 
            width="60" 
            height="60" 
            x="215" 
            y="0"
            />
          </mxCell>
        <mxCell
          style="rounded=1;whiteSpace=wrap;verticalAlign=middle;align=center" 
          id="shape_b3" 
          parent="row_bottom" 
          value="B3" 
          vertex="1"
          >
          <mxGeometry
            as="geometry" 
            width="60" 
            height="60" 
            x="305" 
            y="0"
            />
          </mxCell>
        <mxCell
          style="rounded=1;whiteSpace=wrap;verticalAlign=middle;align=center" 
          id="shape_b4" 
          parent="row_bottom" 
          value="B4" 
          vertex="1"
          >
          <mxGeometry
            as="geometry" 
            width="60" 
            height="60" 
            x="395" 
            y="0"
            />
          </mxCell>
        <mxCell
          id="dependencies" 
          source="shape_center" 
          target="shape_t1" 
          parent="root" 
          edge="1" 
          style="edgeStyle=orthogonalEdgeStyle;rounded=1;orthogonalLoop=1;jettySize=auto;html=1;startArrow=none;startFill=0;endArrow=block;endFill=1"
          >
          <mxGeometry
            relative="1" 
            as="geometry"
            >
            <Array
              as="points"
              >
              <mxPoint
                x="310" 
                y="155"
                />
              <mxPoint
                x="230" 
                y="155"
                />
              </Array>
            </mxGeometry>
          </mxCell>
        <mxCell
          id="dependencies_2" 
          source="shape_center" 
          target="shape_t2" 
          parent="root" 
          edge="1" 
          style="edgeStyle=orthogonalEdgeStyle;rounded=1;orthogonalLoop=1;jettySize=auto;html=1;startArrow=none;startFill=0;endArrow=block;endFill=1"
          >
          <mxGeometry
            relative="1" 
            as="geometry"
            >
            <Array
              as="points"
              >
              <mxPoint
                x="320" 
                y="145"
                />
              <mxPoint
                x="320" 
                y="145"
                />
              </Array>
            </mxGeometry>
          </mxCell>
        <mxCell
          id="dependencies_3" 
          source="shape_center" 
          target="shape_t3" 
          parent="root" 
          edge="1" 
          style="edgeStyle=orthogonalEdgeStyle;rounded=1;orthogonalLoop=1;jettySize=auto;html=1;startArrow=none;startFill=0;endArrow=block;endFill=1"
          >
          <mxGeometry
            relative="1" 
            as="geometry"
            >
            <Array
              as="points"
              >
              <mxPoint
                x="330" 
                y="155"
                />
              <mxPoint
                x="410" 
                y="155"
                />
              </Array>
            </mxGeometry>
          </mxCell>
        <mxCell
          id="dependencies_4" 
          source="shape_center" 
          target="shape_b1" 
          parent="root" 
          edge="1" 
          style="edgeStyle=orthogonalEdgeStyle;rounded=1;orthogonalLoop=1;jettySize=auto;html=1;startArrow=none;startFill=0;endArrow=block;endFill=1"
          >
          <mxGeometry
            relative="1" 
            as="geometry"
            >
            <Array
              as="points"
              >
              <mxPoint
                x="305" 
                y="745"
                />
              <mxPoint
                x="185" 
                y="745"
                />
              </Array>
            </mxGeometry>
          </mxCell>
        <mxCell
          id="dependencies_5" 
          source="shape_center" 
          target="shape_b2" 
          parent="root" 
          edge="1" 
          style="edgeStyle=orthogonalEdgeStyle;rounded=1;orthogonalLoop=1;jettySize=auto;html=1;startArrow=none;startFill=0;endArrow=block;endFill=1"
          >
          <mxGeometry
            relative="1" 
            as="geometry"
            >
            <Array
              as="points"
              >
              <mxPoint
                x="315" 
                y="755"
                />
              <mxPoint
                x="275" 
                y="755"
                />
              </Array>
            </mxGeometry>
          </mxCell>
        <mxCell
          id="dependencies_6" 
          source="shape_center" 
          target="shape_b3" 
          parent="root" 
          edge="1" 
          style="edgeStyle=orthogonalEdgeStyle;rounded=1;orthogonalLoop=1;jettySize=auto;html=1;startArrow=none;startFill=0;endArrow=block;endFill=1"
          >
          <mxGeometry
            relative="1" 
            as="geometry"
            >
            <Array
              as="points"
              >
              <mxPoint
                x="325" 
                y="755"
                />
              <mxPoint
                x="365" 
                y="755"
                />
              </Array>
            </mxGeometry>
          </mxCell>
        <mxCell
          id="dependencies_7" 
          source="shape_center" 
          target="shape_b4" 
          parent="root" 
          edge="1" 
          style="edgeStyle=orthogonalEdgeStyle;rounded=1;orthogonalLoop=1;jettySize=auto;html=1;startArrow=none;startFill=0;endArrow=block;endFill=1"
          >
          <mxGeometry
            relative="1" 
            as="geometry"
            >
            <Array
              as="points"
              >
              <mxPoint
                x="335" 
                y="745"
                />
              <mxPoint
                x="455" 
                y="745"
                />
              </Array>
            </mxGeometry>
          </mxCell>
        <mxCell
          id="dependencies_8" 
          source="shape_center" 
          target="shape_l1" 
          parent="root" 
          edge="1" 
          style="edgeStyle=orthogonalEdgeStyle;rounded=1;orthogonalLoop=1;jettySize=auto;html=1;startArrow=none;startFill=0;endArrow=block;endFill=1"
          >
          <mxGeometry
            relative="1" 
            as="geometry"
            >
            <Array
              as="points"
              >
              <mxPoint
                x="140" 
                y="440"
                />
              <mxPoint
                x="140" 
                y="330"
                />
              </Array>
            </mxGeometry>
          </mxCell>
        <mxCell
          id="dependencies_9" 
          source="shape_center" 
          target="shape_l2" 
          parent="root" 
          edge="1" 
          style="edgeStyle=orthogonalEdgeStyle;rounded=1;orthogonalLoop=1;jettySize=auto;html=1;startArrow=none;startFill=0;endArrow=block;endFill=1"
          >
          <mxGeometry
            relative="1" 
            as="geometry"
            >
            <Array
              as="points"
              >
              <mxPoint
                x="130" 
                y="450"
                />
              <mxPoint
                x="130" 
                y="450"
                />
              </Array>
            </mxGeometry>
          </mxCell>
        <mxCell
          id="dependencies_10" 
          source="shape_center" 
          target="shape_l3" 
          parent="root" 
          edge="1" 
          style="edgeStyle=orthogonalEdgeStyle;rounded=1;orthogonalLoop=1;jettySize=auto;html=1;startArrow=none;startFill=0;endArrow=block;endFill=1"
          >
          <mxGeometry
            relative="1" 
            as="geometry"
            >
            <Array
              as="points"
              >
              <mxPoint
                x="140" 
                y="460"
                />
              <mxPoint
                x="140" 
                y="570"
                />
              </Array>
            </mxGeometry>
          </mxCell>
        <mxCell
          id="dependencies_11" 
          source="shape_center" 
          target="shape_r1" 
          parent="root" 
          edge="1" 
          style="edgeStyle=orthogonalEdgeStyle;rounded=1;orthogonalLoop=1;jettySize=auto;html=1;startArrow=none;startFill=0;endArrow=block;endFill=1"
          >
          <mxGeometry
            relative="1" 
            as="geometry"
            >
            <Array
              as="points"
              >
              <mxPoint
                x="500" 
                y="435"
                />
              <mxPoint
                x="500" 
                y="270"
                />
              </Array>
            </mxGeometry>
          </mxCell>
        <mxCell
          id="dependencies_12" 
          source="shape_center" 
          target="shape_r2" 
          parent="root" 
          edge="1" 
          style="edgeStyle=orthogonalEdgeStyle;rounded=1;orthogonalLoop=1;jettySize=auto;html=1;startArrow=none;startFill=0;endArrow=block;endFill=1"
          >
          <mxGeometry
            relative="1" 
            as="geometry"
            >
            <Array
              as="points"
              >
              <mxPoint
                x="510" 
                y="445"
                />
              <mxPoint
                x="510" 
                y="390"
                />
              </Array>
            </mxGeometry>
          </mxCell>
        <mxCell
          id="dependencies_13" 
          source="shape_center" 
          target="shape_r3" 
          parent="root" 
          edge="1" 
          style="edgeStyle=orthogonalEdgeStyle;rounded=1;orthogonalLoop=1;jettySize=auto;html=1;startArrow=none;startFill=0;endArrow=block;endFill=1"
          >
          <mxGeometry
            relative="1" 
            as="geometry"
            >
            <Array
              as="points"
              >
              <mxPoint
                x="510" 
                y="455"
                />
              <mxPoint
                x="510" 
                y="510"
                />
              </Array>
            </mxGeometry>
          </mxCell>
        <mxCell
          id="dependencies_14" 
          source="shape_center" 
          target="shape_r4" 
          parent="root" 
          edge="1" 
          style="edgeStyle=orthogonalEdgeStyle;rounded=1;orthogonalLoop=1;jettySize=auto;html=1;startArrow=none;startFill=0;endArrow=block;endFill=1"
          >
          <mxGeometry
            relative="1" 
            as="geometry"
            >
            <Array
              as="points"
              >
              <mxPoint
                x="500" 
                y="465"
                />
              <mxPoint
                x="500" 
                y="630"
                />
              </Array>
            </mxGeometry>
          </mxCell>
        </root>
      </mxGraphModel>
    </diagram>
  </mxfile>